<svg width="40" height="40" viewBox="0 0 40 40" fill="none" xmlns="http://www.w3.org/2000/svg">
<rect width="40" height="40" rx="10" fill="white"/>
<path d="M10 32C10 32 8 32 8 30C8 28 10 22 20 22C30 22 32 28 32 30C32 32 30 32 30 32H10ZM20 20C21.5913 20 23.1174 19.3679 24.2426 18.2426C25.3679 17.1174 26 15.5913 26 14C26 12.4087 25.3679 10.8826 24.2426 9.75736C23.1174 8.63214 21.5913 8 20 8C18.4087 8 16.8826 8.63214 15.7574 9.75736C14.6321 10.8826 14 12.4087 14 14C14 15.5913 14.6321 17.1174 15.7574 18.2426C16.8826 19.3679 18.4087 20 20 20Z" fill="#089CF0"/>
</svg>
